<?xml version="1.0" encoding="UTF-8"?>
<!DOCTYPE svg PUBLIC "-//W3C//DTD SVG 1.1//EN" "http://www.w3.org/Graphics/SVG/1.1/DTD/svg11.dtd">
<svg xmlns="http://www.w3.org/2000/svg" version="1.1" width="613px" height="522px" style="shape-rendering:geometricPrecision; text-rendering:geometricPrecision; image-rendering:optimizeQuality; fill-rule:evenodd; clip-rule:evenodd" xmlns:xlink="http://www.w3.org/1999/xlink">
<g><path style="opacity:1" fill="#bd851f" d="M 172.5,127.5 C 164.461,127.775 156.461,128.442 148.5,129.5C 156.36,126.742 164.36,126.075 172.5,127.5 Z"/></g>
<g><path style="opacity:1" fill="#fefdfd" d="M 172.5,127.5 C 175.167,127.5 177.833,127.5 180.5,127.5C 187.158,128.227 193.825,128.893 200.5,129.5C 200.5,130.167 200.833,130.5 201.5,130.5C 209.791,132.959 218.124,135.292 226.5,137.5C 226.5,138.167 226.833,138.5 227.5,138.5C 229.649,139.736 231.982,140.736 234.5,141.5C 235.514,142.674 236.847,143.34 238.5,143.5C 239.659,145.25 241.326,146.25 243.5,146.5C 243.973,147.906 244.973,148.573 246.5,148.5C 249.929,152.262 253.929,155.262 258.5,157.5C 264.119,163.785 270.119,169.785 276.5,175.5C 277.757,178.427 279.757,180.761 282.5,182.5C 285.109,187.383 288.443,191.716 292.5,195.5C 293.433,198.37 295.1,200.704 297.5,202.5C 297.427,204.027 298.094,205.027 299.5,205.5C 299.845,208.198 301.178,210.198 303.5,211.5C 303.75,213.674 304.75,215.341 306.5,216.5C 306.427,218.027 307.094,219.027 308.5,219.5C 309.079,222.331 310.412,224.664 312.5,226.5C 313.338,226.842 313.672,227.508 313.5,228.5C 314.079,231.331 315.412,233.664 317.5,235.5C 317.66,237.153 318.326,238.486 319.5,239.5C 320.079,242.331 321.412,244.664 323.5,246.5C 323.229,248.38 323.896,249.713 325.5,250.5C 326.338,250.842 326.672,251.508 326.5,252.5C 326.229,254.38 326.896,255.713 328.5,256.5C 330.008,258.181 331.008,260.181 331.5,262.5C 331.75,264.674 332.75,266.341 334.5,267.5C 334.66,269.153 335.326,270.486 336.5,271.5C 336.427,273.027 337.094,274.027 338.5,274.5C 339.338,274.842 339.672,275.508 339.5,276.5C 340.759,280.025 342.759,283.025 345.5,285.5C 345.738,287.404 346.738,288.738 348.5,289.5C 348.738,291.404 349.738,292.738 351.5,293.5C 352.419,296.089 354.086,298.089 356.5,299.5C 361.545,306.879 367.878,312.879 375.5,317.5C 376.035,319.446 377.368,320.446 379.5,320.5C 380.802,322.822 382.802,324.155 385.5,324.5C 386.659,326.25 388.326,327.25 390.5,327.5C 392.181,329.008 394.181,330.008 396.5,330.5C 417.586,342.232 439.919,345.066 463.5,339C 466.174,338.33 468.507,337.163 470.5,335.5C 473.313,335.975 475.313,334.975 476.5,332.5C 478.153,332.34 479.486,331.674 480.5,330.5C 484.363,329.306 487.363,326.973 489.5,323.5C 491.833,323.167 493.167,321.833 493.5,319.5C 496.647,317.687 498.647,315.02 499.5,311.5C 500.906,311.027 501.573,310.027 501.5,308.5C 503.539,307.089 504.539,305.089 504.5,302.5C 506.448,300.68 507.448,298.346 507.5,295.5C 509.68,292.619 510.68,289.286 510.5,285.5C 510.232,283.901 510.566,282.568 511.5,281.5C 513.142,275.737 514.142,269.737 514.5,263.5C 514.5,263.167 514.5,262.833 514.5,262.5C 515.518,247.79 513.851,233.456 509.5,219.5C 509.5,218.833 509.167,218.5 508.5,218.5C 507.076,211.651 504.076,205.651 499.5,200.5C 499.446,198.368 498.446,197.035 496.5,196.5C 493.833,191.833 490.167,188.167 485.5,185.5C 485.027,184.094 484.027,183.427 482.5,183.5C 482.027,182.094 481.027,181.427 479.5,181.5C 474.527,177.515 468.86,174.848 462.5,173.5C 460.562,171.837 458.228,171.171 455.5,171.5C 449.156,169.222 442.489,168.222 435.5,168.5C 432.609,167.597 429.609,167.264 426.5,167.5C 415.756,168.53 405.756,171.53 396.5,176.5C 394.181,176.992 392.181,177.992 390.5,179.5C 388.326,179.75 386.659,180.75 385.5,182.5C 382.63,183.433 380.296,185.1 378.5,187.5C 376.251,188.08 374.585,189.413 373.5,191.5C 366.833,196.167 361.167,201.833 356.5,208.5C 354.413,209.585 353.08,211.251 352.5,213.5C 352.5,214.167 352.167,214.5 351.5,214.5C 349.738,215.262 348.738,216.596 348.5,218.5C 346.738,219.262 345.738,220.596 345.5,222.5C 342.149,226.102 338.482,226.435 334.5,223.5C 333.59,220.008 331.924,217.008 329.5,214.5C 327.841,209.173 325.174,204.507 321.5,200.5C 321.008,198.181 320.008,196.181 318.5,194.5C 318.5,194.167 318.5,193.833 318.5,193.5C 318.5,192.167 318.5,190.833 318.5,189.5C 322.536,185.466 326.202,181.132 329.5,176.5C 333.833,172.833 337.833,168.833 341.5,164.5C 349.172,158.493 356.839,152.493 364.5,146.5C 366.674,146.25 368.341,145.25 369.5,143.5C 371.153,143.34 372.486,142.674 373.5,141.5C 376.018,140.736 378.351,139.736 380.5,138.5C 381.167,138.5 381.5,138.167 381.5,137.5C 383.553,137.598 385.22,136.931 386.5,135.5C 389.221,135.037 391.888,134.371 394.5,133.5C 395.167,133.5 395.5,133.167 395.5,132.5C 398.906,132.044 402.239,131.378 405.5,130.5C 406.167,130.5 406.5,130.167 406.5,129.5C 412.466,128.553 418.466,127.886 424.5,127.5C 428.833,127.5 433.167,127.5 437.5,127.5C 463.636,129.323 487.636,137.323 509.5,151.5C 510.262,153.262 511.596,154.262 513.5,154.5C 517.785,159.452 522.452,164.119 527.5,168.5C 528.08,170.749 529.413,172.415 531.5,173.5C 531.427,175.027 532.094,176.027 533.5,176.5C 533.427,178.027 534.094,179.027 535.5,179.5C 536.11,181.434 537.11,183.101 538.5,184.5C 539.079,187.331 540.412,189.664 542.5,191.5C 543.648,195.787 545.315,199.787 547.5,203.5C 548.01,206.539 548.677,209.539 549.5,212.5C 551.394,213.601 552.061,214.934 551.5,216.5C 551.704,219.518 552.037,222.518 552.5,225.5C 552.5,226.167 552.833,226.5 553.5,226.5C 554.579,243.816 554.746,261.149 554,278.5C 552.226,287.538 550.392,296.538 548.5,305.5C 546.415,307.684 545.415,310.351 545.5,313.5C 545.167,314.167 544.833,314.833 544.5,315.5C 542.008,319.151 540.008,323.151 538.5,327.5C 538.672,328.492 538.338,329.158 537.5,329.5C 536.094,329.973 535.427,330.973 535.5,332.5C 533.674,334.147 532.34,336.147 531.5,338.5C 529.413,339.585 528.08,341.251 527.5,343.5C 522.5,347.833 517.833,352.5 513.5,357.5C 511.251,358.08 509.585,359.413 508.5,361.5C 506.973,361.427 505.973,362.094 505.5,363.5C 503.973,363.427 502.973,364.094 502.5,365.5C 500.326,365.75 498.659,366.75 497.5,368.5C 492.484,370.341 487.818,372.674 483.5,375.5C 477.84,376.995 472.173,378.495 466.5,380C 459.509,380.975 452.509,381.808 445.5,382.5C 442.5,382.5 439.5,382.5 436.5,382.5C 424.936,382.305 413.603,380.638 402.5,377.5C 402.5,376.833 402.167,376.5 401.5,376.5C 398.933,375.525 396.267,374.858 393.5,374.5C 391.491,372.935 389.157,371.935 386.5,371.5C 386.5,370.833 386.167,370.5 385.5,370.5C 382.397,368.616 379.063,367.282 375.5,366.5C 373.847,366.34 372.514,365.674 371.5,364.5C 369.664,362.412 367.331,361.079 364.5,360.5C 364.027,359.094 363.027,358.427 361.5,358.5C 361.027,357.094 360.027,356.427 358.5,356.5C 358.027,355.094 357.027,354.427 355.5,354.5C 354.738,352.738 353.404,351.738 351.5,351.5C 347.466,347.464 343.132,343.798 338.5,340.5C 335.833,337.167 332.833,334.167 329.5,331.5C 329.5,330.167 328.833,329.5 327.5,329.5C 326.243,326.573 324.243,324.239 321.5,322.5C 320.92,320.251 319.587,318.585 317.5,317.5C 317.262,315.596 316.262,314.262 314.5,313.5C 314.262,311.596 313.262,310.262 311.5,309.5C 311.573,307.973 310.906,306.973 309.5,306.5C 309.573,304.973 308.906,303.973 307.5,303.5C 307.573,301.973 306.906,300.973 305.5,300.5C 296.417,283.332 287.084,266.332 277.5,249.5C 275.251,243.995 272.251,238.995 268.5,234.5C 267.617,231.296 265.95,228.629 263.5,226.5C 259.377,218.592 254.044,211.592 247.5,205.5C 241.79,197.456 234.79,190.79 226.5,185.5C 226.027,184.094 225.027,183.427 223.5,183.5C 222.341,181.75 220.674,180.75 218.5,180.5C 214.192,176.848 209.192,174.514 203.5,173.5C 203.5,172.833 203.167,172.5 202.5,172.5C 200.5,172.167 198.5,171.833 196.5,171.5C 196.082,170.778 195.416,170.278 194.5,170C 189.536,169.088 184.536,168.588 179.5,168.5C 177.735,167.539 175.735,167.205 173.5,167.5C 166.722,167.991 160.055,168.991 153.5,170.5C 152.833,170.5 152.5,170.833 152.5,171.5C 142.314,173.098 133.314,177.098 125.5,183.5C 120.223,185.777 116.223,189.444 113.5,194.5C 110.185,197.125 107.851,200.458 106.5,204.5C 104.461,205.911 103.461,207.911 103.5,210.5C 101.859,213.276 100.359,216.276 99,219.5C 98.4666,222.929 97.6332,226.262 96.5,229.5C 96.5,229.833 96.5,230.167 96.5,230.5C 94.3713,244.587 94.0379,258.587 95.5,272.5C 95.8333,275.167 96.1667,277.833 96.5,280.5C 96.5,281.167 96.8333,281.5 97.5,281.5C 97.32,285.286 98.32,288.619 100.5,291.5C 101.943,297.721 104.943,303.054 109.5,307.5C 109.427,309.027 110.094,310.027 111.5,310.5C 114.5,315.5 118.5,319.5 123.5,322.5C 126.358,326.01 130.024,328.343 134.5,329.5C 137.463,331.786 140.796,333.619 144.5,335C 150.578,337.569 156.912,339.069 163.5,339.5C 163.833,339.5 164.167,339.5 164.5,339.5C 170.79,340.75 177.123,340.75 183.5,339.5C 183.833,339.5 184.167,339.5 184.5,339.5C 187.01,339.073 189.343,338.407 191.5,337.5C 193.389,336.258 195.389,336.258 197.5,337.5C 198.492,337.672 199.158,337.338 199.5,336.5C 200.167,336.5 200.5,336.167 200.5,335.5C 205.017,334.903 209.017,333.237 212.5,330.5C 214.09,330.372 215.423,329.705 216.5,328.5C 214.741,325.734 212.407,323.734 209.5,322.5C 206.871,319.369 204.038,316.369 201,313.5C 200.08,310.692 200.913,308.525 203.5,307C 209.764,305.631 215.764,303.798 221.5,301.5C 229.247,300.625 236.58,298.625 243.5,295.5C 246.969,295.453 250.302,294.787 253.5,293.5C 254.167,293.5 254.5,293.167 254.5,292.5C 259.55,292.145 264.217,290.812 268.5,288.5C 270.903,288.552 273.236,288.219 275.5,287.5C 278.279,287.279 280.946,287.612 283.5,288.5C 283.113,293.874 282.446,299.207 281.5,304.5C 281.5,304.833 281.5,305.167 281.5,305.5C 278.509,323.418 275.843,341.418 273.5,359.5C 272.164,363.46 270.831,367.46 269.5,371.5C 267.801,371.66 266.134,371.494 264.5,371C 263.529,369.519 262.196,368.685 260.5,368.5C 257.769,364.766 254.436,361.766 250.5,359.5C 249.878,358.373 249.045,357.373 248,356.5C 244.499,358.488 241.332,360.822 238.5,363.5C 236.326,363.75 234.659,364.75 233.5,366.5C 231.62,366.229 230.287,366.896 229.5,368.5C 221.925,371.455 214.259,374.122 206.5,376.5C 205.833,376.5 205.5,376.833 205.5,377.5C 199.822,378.085 194.155,378.751 188.5,379.5C 188.167,379.5 187.833,379.5 187.5,379.5C 178.528,380.347 169.528,380.68 160.5,380.5C 160.5,379.833 160.167,379.5 159.5,379.5C 154.153,378.927 148.82,378.26 143.5,377.5C 143.5,376.833 143.167,376.5 142.5,376.5C 139.583,375.583 136.583,374.916 133.5,374.5C 131.245,372.62 128.578,371.62 125.5,371.5C 121.151,368.659 116.484,366.326 111.5,364.5C 105.508,360.169 99.5085,355.836 93.5,351.5C 89.4519,346.785 85.1186,342.452 80.5,338.5C 78.984,335.467 76.984,332.8 74.5,330.5C 74.573,328.973 73.9063,327.973 72.5,327.5C 67.3523,318.204 63.019,308.537 59.5,298.5C 59.5,297.833 59.1667,297.5 58.5,297.5C 54.3652,273.998 53.3652,250.331 55.5,226.5C 56.1667,226.5 56.5,226.167 56.5,225.5C 57.7614,218.055 59.4281,210.722 61.5,203.5C 62.1667,203.5 62.5,203.167 62.5,202.5C 63.038,200.883 63.3713,199.216 63.5,197.5C 65.9922,193.849 67.9922,189.849 69.5,185.5C 75.0839,177.241 81.0839,169.241 87.5,161.5C 92.4863,157.845 97.153,153.845 101.5,149.5C 106.009,147.081 110.342,144.414 114.5,141.5C 117.545,140.721 120.211,139.387 122.5,137.5C 127.922,135.802 133.255,134.135 138.5,132.5C 139.167,132.5 139.5,132.167 139.5,131.5C 142.206,131.425 144.873,131.092 147.5,130.5C 148.167,130.5 148.5,130.167 148.5,129.5C 156.461,128.442 164.461,127.775 172.5,127.5 Z"/></g>
<g><path style="opacity:1" fill="#c28d2e" d="M 180.5,127.5 C 187.354,125.961 194.02,126.627 200.5,129.5C 193.825,128.893 187.158,128.227 180.5,127.5 Z"/></g>
<g><path style="opacity:1" fill="#ba7f0f" d="M 424.5,127.5 C 418.466,127.886 412.466,128.553 406.5,129.5C 412.311,126.719 418.311,126.053 424.5,127.5 Z"/></g>
<g><path style="opacity:1" fill="#ba8112" d="M 147.5,130.5 C 144.873,131.092 142.206,131.425 139.5,131.5C 142.04,129.587 144.707,129.254 147.5,130.5 Z"/></g>
<g><path style="opacity:1" fill="#be8623" d="M 405.5,130.5 C 402.239,131.378 398.906,132.044 395.5,132.5C 397.829,130.905 400.495,129.905 403.5,129.5C 404.416,129.543 405.083,129.876 405.5,130.5 Z"/></g>
<g><path style="opacity:1" fill="#c18b2b" d="M 201.5,130.5 C 201.917,129.876 202.584,129.543 203.5,129.5C 211.654,131.111 219.321,133.778 226.5,137.5C 218.124,135.292 209.791,132.959 201.5,130.5 Z"/></g>
<g><path style="opacity:0.502" fill="#bf8826" d="M 437.5,127.5 C 458.261,127.106 477.928,131.939 496.5,142C 501.256,144.699 505.589,147.866 509.5,151.5C 487.636,137.323 463.636,129.323 437.5,127.5 Z"/></g>
<g><path style="opacity:1" fill="#c08829" d="M 138.5,132.5 C 133.255,134.135 127.922,135.802 122.5,137.5C 127.515,134.158 132.848,132.491 138.5,132.5 Z"/></g>
<g><path style="opacity:1" fill="#bb8116" d="M 394.5,133.5 C 391.888,134.371 389.221,135.037 386.5,135.5C 388.954,133.337 391.62,132.67 394.5,133.5 Z"/></g>
<g><path style="opacity:1" fill="#bb8216" d="M 386.5,135.5 C 385.22,136.931 383.553,137.598 381.5,137.5C 382.78,136.069 384.447,135.402 386.5,135.5 Z"/></g>
<g><path style="opacity:1" fill="#be8627" d="M 380.5,138.5 C 378.351,139.736 376.018,140.736 373.5,141.5C 375.216,139.553 377.383,138.219 380,137.5C 380.399,137.728 380.565,138.062 380.5,138.5 Z"/></g>
<g><path style="opacity:1" fill="#bc8321" d="M 234.5,141.5 C 231.982,140.736 229.649,139.736 227.5,138.5C 227.435,138.062 227.601,137.728 228,137.5C 230.617,138.219 232.784,139.553 234.5,141.5 Z"/></g>
<g><path style="opacity:1" fill="#bc841b" d="M 122.5,137.5 C 120.211,139.387 117.545,140.721 114.5,141.5C 116.612,139.229 119.279,137.896 122.5,137.5 Z"/></g>
<g><path style="opacity:1" fill="#b97f0a" d="M 234.5,141.5 C 236.38,141.229 237.713,141.896 238.5,143.5C 236.847,143.34 235.514,142.674 234.5,141.5 Z"/></g>
<g><path style="opacity:1" fill="#bc8313" d="M 373.5,141.5 C 372.486,142.674 371.153,143.34 369.5,143.5C 370.287,141.896 371.62,141.229 373.5,141.5 Z"/></g>
<g><path style="opacity:1" fill="#be8720" d="M 114.5,141.5 C 110.342,144.414 106.009,147.081 101.5,149.5C 105.033,145.565 109.366,142.899 114.5,141.5 Z"/></g>
<g><path style="opacity:1" fill="#bb821a" d="M 238.5,143.5 C 240.674,143.75 242.341,144.75 243.5,146.5C 241.326,146.25 239.659,145.25 238.5,143.5 Z"/></g>
<g><path style="opacity:1" fill="#ba8014" d="M 369.5,143.5 C 368.341,145.25 366.674,146.25 364.5,146.5C 365.659,144.75 367.326,143.75 369.5,143.5 Z"/></g>
<g><path style="opacity:1" fill="#ba8012" d="M 243.5,146.5 C 245.027,146.427 246.027,147.094 246.5,148.5C 244.973,148.573 243.973,147.906 243.5,146.5 Z"/></g>
<g><path style="opacity:1" fill="#c59038" d="M 364.5,146.5 C 356.839,152.493 349.172,158.493 341.5,164.5C 348.015,156.98 355.681,150.98 364.5,146.5 Z"/></g>
<g><path style="opacity:1" fill="#bb8111" d="M 509.5,151.5 C 511.404,151.738 512.738,152.738 513.5,154.5C 511.596,154.262 510.262,153.262 509.5,151.5 Z"/></g>
<g><path style="opacity:1" fill="#bd841c" d="M 246.5,148.5 C 251.071,150.738 255.071,153.738 258.5,157.5C 253.929,155.262 249.929,152.262 246.5,148.5 Z"/></g>
<g><path style="opacity:1" fill="#c5903d" d="M 101.5,149.5 C 97.153,153.845 92.4863,157.845 87.5,161.5C 91.2073,156.465 95.874,152.465 101.5,149.5 Z"/></g>
<g><path style="opacity:1" fill="#be8520" d="M 258.5,157.5 C 265.521,162.521 271.521,168.521 276.5,175.5C 270.119,169.785 264.119,163.785 258.5,157.5 Z"/></g>
<g><path style="opacity:1" fill="#bb8210" d="M 513.5,154.5 C 519.188,158.188 523.855,162.855 527.5,168.5C 522.452,164.119 517.785,159.452 513.5,154.5 Z"/></g>
<g><path style="opacity:1" fill="#bb8208" d="M 341.5,164.5 C 337.833,168.833 333.833,172.833 329.5,176.5C 332.5,171.5 336.5,167.5 341.5,164.5 Z"/></g>
<g><path style="opacity:1" fill="#ba8113" d="M 435.5,168.5 C 442.489,168.222 449.156,169.222 455.5,171.5C 448.646,170.855 441.979,169.855 435.5,168.5 Z"/></g>
<g><path style="opacity:0.439" fill="#c38e34" d="M 173.5,167.5 C 172.486,168.765 170.986,169.431 169,169.5C 164.463,169.934 159.963,170.6 155.5,171.5C 154.584,171.457 153.917,171.124 153.5,170.5C 160.055,168.991 166.722,167.991 173.5,167.5 Z"/></g>
<g><path style="opacity:1" fill="#bc831d" d="M 179.5,168.5 C 184.536,168.588 189.536,169.088 194.5,170C 195.416,170.278 196.082,170.778 196.5,171.5C 190.642,170.859 184.975,169.859 179.5,168.5 Z"/></g>
<g><path style="opacity:1" fill="#be8619" d="M 527.5,168.5 C 529.587,169.585 530.92,171.251 531.5,173.5C 529.413,172.415 528.08,170.749 527.5,168.5 Z"/></g>
<g><path style="opacity:1" fill="#bc841b" d="M 152.5,171.5 C 143.195,174.649 134.195,178.649 125.5,183.5C 133.314,177.098 142.314,173.098 152.5,171.5 Z"/></g>
<g><path style="opacity:0.063" fill="#b97f0d" d="M 196.5,171.5 C 198.5,171.833 200.5,172.167 202.5,172.5C 200.32,173.794 198.32,173.461 196.5,171.5 Z"/></g>
<g><path style="opacity:1" fill="#c08a2a" d="M 455.5,171.5 C 458.228,171.171 460.562,171.837 462.5,173.5C 459.848,173.59 457.515,172.924 455.5,171.5 Z"/></g>
<g><path style="opacity:1" fill="#c18b2c" d="M 426.5,167.5 C 426.03,168.693 425.03,169.36 423.5,169.5C 414.314,171.231 405.314,173.564 396.5,176.5C 405.756,171.53 415.756,168.53 426.5,167.5 Z"/></g>
<g><path style="opacity:1" fill="#bc8415" d="M 531.5,173.5 C 532.906,173.973 533.573,174.973 533.5,176.5C 532.094,176.027 531.427,175.027 531.5,173.5 Z"/></g>
<g><path style="opacity:1" fill="#bb821a" d="M 203.5,173.5 C 209.192,174.514 214.192,176.848 218.5,180.5C 213.311,178.403 208.311,176.07 203.5,173.5 Z"/></g>
<g><path style="opacity:1" fill="#ba8112" d="M 396.5,176.5 C 395.089,178.539 393.089,179.539 390.5,179.5C 392.181,177.992 394.181,176.992 396.5,176.5 Z"/></g>
<g><path style="opacity:1" fill="#bf8622" d="M 533.5,176.5 C 534.906,176.973 535.573,177.973 535.5,179.5C 534.094,179.027 533.427,178.027 533.5,176.5 Z"/></g>
<g><path style="opacity:1" fill="#c1892b" d="M 87.5,161.5 C 81.0839,169.241 75.0839,177.241 69.5,185.5C 73.6396,176.037 79.6396,168.037 87.5,161.5 Z"/></g>
<g><path style="opacity:0.314" fill="#bb821a" d="M 462.5,173.5 C 468.86,174.848 474.527,177.515 479.5,181.5C 473.643,179.07 467.977,176.403 462.5,173.5 Z"/></g>
<g><path style="opacity:1" fill="#bb820c" d="M 218.5,180.5 C 220.674,180.75 222.341,181.75 223.5,183.5C 221.326,183.25 219.659,182.25 218.5,180.5 Z"/></g>
<g><path style="opacity:1" fill="#c1892d" d="M 276.5,175.5 C 279.243,177.239 281.243,179.573 282.5,182.5C 279.757,180.761 277.757,178.427 276.5,175.5 Z"/></g>
<g><path style="opacity:1" fill="#be8626" d="M 390.5,179.5 C 389.341,181.25 387.674,182.25 385.5,182.5C 386.659,180.75 388.326,179.75 390.5,179.5 Z"/></g>
<g><path style="opacity:1" fill="#b87c06" d="M 479.5,181.5 C 481.027,181.427 482.027,182.094 482.5,183.5C 480.973,183.573 479.973,182.906 479.5,181.5 Z"/></g>
<g><path style="opacity:1" fill="#be861c" d="M 535.5,179.5 C 537.727,180.401 538.727,182.067 538.5,184.5C 537.11,183.101 536.11,181.434 535.5,179.5 Z"/></g>
<g><path style="opacity:1" fill="#c18b2d" d="M 329.5,176.5 C 326.202,181.132 322.536,185.466 318.5,189.5C 321.046,184.281 324.713,179.948 329.5,176.5 Z"/></g>
<g><path style="opacity:1" fill="#bc8215" d="M 482.5,183.5 C 484.027,183.427 485.027,184.094 485.5,185.5C 483.973,185.573 482.973,184.906 482.5,183.5 Z"/></g>
<g><path style="opacity:1" fill="#bb7f18" d="M 223.5,183.5 C 225.027,183.427 226.027,184.094 226.5,185.5C 224.973,185.573 223.973,184.906 223.5,183.5 Z"/></g>
<g><path style="opacity:0.439" fill="#bb811b" d="M 385.5,182.5 C 383.704,184.9 381.37,186.567 378.5,187.5C 380.296,185.1 382.63,183.433 385.5,182.5 Z"/></g>
<g><path style="opacity:1" fill="#c08928" d="M 538.5,184.5 C 540.588,186.336 541.921,188.669 542.5,191.5C 540.412,189.664 539.079,187.331 538.5,184.5 Z"/></g>
<g><path style="opacity:1" fill="#be8528" d="M 125.5,183.5 C 121.526,187.138 117.526,190.805 113.5,194.5C 116.223,189.444 120.223,185.777 125.5,183.5 Z"/></g>
<g><path style="opacity:1" fill="#be8621" d="M 282.5,182.5 C 284.129,183.625 285.629,184.959 287,186.5C 289.358,189.222 291.191,192.222 292.5,195.5C 288.443,191.716 285.109,187.383 282.5,182.5 Z"/></g>
<g><path style="opacity:0.188" fill="#b97c18" d="M 378.5,187.5 C 377.415,189.587 375.749,190.92 373.5,191.5C 374.585,189.413 376.251,188.08 378.5,187.5 Z"/></g>
<g><path style="opacity:1" fill="#c08c2f" d="M 318.5,189.5 C 318.5,190.833 318.5,192.167 318.5,193.5C 315.978,192.335 315.978,191.002 318.5,189.5 Z"/></g>
<g><path style="opacity:1" fill="#bc8413" d="M 485.5,185.5 C 490.167,188.167 493.833,191.833 496.5,196.5C 492.5,193.167 488.833,189.5 485.5,185.5 Z"/></g>
<g><path style="opacity:1" fill="#bc831d" d="M 69.5,185.5 C 67.9922,189.849 65.9922,193.849 63.5,197.5C 64.4654,192.902 66.4654,188.902 69.5,185.5 Z"/></g>
<g><path style="opacity:1" fill="#bc831a" d="M 542.5,191.5 C 545.237,194.983 546.903,198.983 547.5,203.5C 545.315,199.787 543.648,195.787 542.5,191.5 Z"/></g>
<g><path style="opacity:1" fill="#bc8216" d="M 113.5,194.5 C 111.656,198.192 109.323,201.525 106.5,204.5C 107.851,200.458 110.185,197.125 113.5,194.5 Z"/></g>
<g><path style="opacity:1" fill="#bc8319" d="M 226.5,185.5 C 234.79,190.79 241.79,197.456 247.5,205.5C 240.474,198.806 233.474,192.139 226.5,185.5 Z"/></g>
<g><path style="opacity:1" fill="#bc831a" d="M 373.5,191.5 C 368.167,197.5 362.5,203.167 356.5,208.5C 361.167,201.833 366.833,196.167 373.5,191.5 Z"/></g>
<g><path style="opacity:1" fill="#c0882c" d="M 318.5,194.5 C 320.008,196.181 321.008,198.181 321.5,200.5C 319.821,199 318.488,197.167 317.5,195C 317.728,194.601 318.062,194.435 318.5,194.5 Z"/></g>
<g><path style="opacity:1" fill="#c18931" d="M 496.5,196.5 C 498.446,197.035 499.446,198.368 499.5,200.5C 498.026,199.564 497.026,198.23 496.5,196.5 Z"/></g>
<g><path style="opacity:1" fill="#b87d0a" d="M 63.5,197.5 C 63.3713,199.216 63.038,200.883 62.5,202.5C 61.3217,200.662 61.655,198.995 63.5,197.5 Z"/></g>
<g><path style="opacity:1" fill="#bc8317" d="M 292.5,195.5 C 294.9,197.296 296.567,199.63 297.5,202.5C 295.1,200.704 293.433,198.37 292.5,195.5 Z"/></g>
<g><path style="opacity:1" fill="#bc8219" d="M 297.5,202.5 C 298.906,202.973 299.573,203.973 299.5,205.5C 298.094,205.027 297.427,204.027 297.5,202.5 Z"/></g>
<g><path style="opacity:0.125" fill="#ba8117" d="M 547.5,203.5 C 549.874,206.252 550.541,209.252 549.5,212.5C 548.677,209.539 548.01,206.539 547.5,203.5 Z"/></g>
<g><path style="opacity:1" fill="#c08922" d="M 106.5,204.5 C 106.008,206.819 105.008,208.819 103.5,210.5C 103.461,207.911 104.461,205.911 106.5,204.5 Z"/></g>
<g><path style="opacity:1" fill="#be8623" d="M 299.5,205.5 C 301.326,207.147 302.66,209.147 303.5,211.5C 301.178,210.198 299.845,208.198 299.5,205.5 Z"/></g>
<g><path style="opacity:1" fill="#bd841d" d="M 321.5,200.5 C 325.174,204.507 327.841,209.173 329.5,214.5C 326.331,210.167 323.664,205.5 321.5,200.5 Z"/></g>
<g><path style="opacity:1" fill="#bd841e" d="M 61.5,203.5 C 59.4281,210.722 57.7614,218.055 56.5,225.5C 55.3775,223.712 55.2109,221.712 56,219.5C 57.2382,213.839 59.0715,208.506 61.5,203.5 Z"/></g>
<g><path style="opacity:1" fill="#ba810f" d="M 356.5,208.5 C 355.92,210.749 354.587,212.415 352.5,213.5C 353.08,211.251 354.413,209.585 356.5,208.5 Z"/></g>
<g><path style="opacity:1" fill="#be8723" d="M 499.5,200.5 C 504.076,205.651 507.076,211.651 508.5,218.5C 505.519,212.539 502.519,206.539 499.5,200.5 Z"/></g>
<g><path style="opacity:1" fill="#bc8317" d="M 303.5,211.5 C 305.25,212.659 306.25,214.326 306.5,216.5C 304.75,215.341 303.75,213.674 303.5,211.5 Z"/></g>
<g><path style="opacity:1" fill="#be8625" d="M 247.5,205.5 C 254.044,211.592 259.377,218.592 263.5,226.5C 257.927,219.688 252.593,212.688 247.5,205.5 Z"/></g>
<g><path style="opacity:1" fill="#bb801d" d="M 351.5,214.5 C 351.262,216.404 350.262,217.738 348.5,218.5C 348.738,216.596 349.738,215.262 351.5,214.5 Z"/></g>
<g><path style="opacity:1" fill="#b97e05" d="M 306.5,216.5 C 307.906,216.973 308.573,217.973 308.5,219.5C 307.094,219.027 306.427,218.027 306.5,216.5 Z"/></g>
<g><path style="opacity:0.941" fill="#bb8115" d="M 329.5,214.5 C 331.924,217.008 333.59,220.008 334.5,223.5C 332.076,220.992 330.41,217.992 329.5,214.5 Z"/></g>
<g><path style="opacity:1" fill="#bc8316" d="M 308.5,219.5 C 310.588,221.336 311.921,223.669 312.5,226.5C 310.412,224.664 309.079,222.331 308.5,219.5 Z"/></g>
<g><path style="opacity:1" fill="#bb801b" d="M 348.5,218.5 C 348.262,220.404 347.262,221.738 345.5,222.5C 345.738,220.596 346.738,219.262 348.5,218.5 Z"/></g>
<g><path style="opacity:1" fill="#c08929" d="M 103.5,210.5 C 101.607,216.236 99.94,222.069 98.5,228C 98.1639,229.03 97.4972,229.53 96.5,229.5C 97.6332,226.262 98.4666,222.929 99,219.5C 100.359,216.276 101.859,213.276 103.5,210.5 Z"/></g>
<g><path style="opacity:1" fill="#c08a27" d="M 509.5,219.5 C 513.851,233.456 515.518,247.79 514.5,262.5C 513.375,251.648 512.208,240.648 511,229.5C 510.089,226.689 509.256,223.856 508.5,221C 508.57,220.235 508.903,219.735 509.5,219.5 Z"/></g>
<g><path style="opacity:1" fill="#b77b03" d="M 551.5,216.5 C 553.287,219.409 553.621,222.409 552.5,225.5C 552.037,222.518 551.704,219.518 551.5,216.5 Z"/></g>
<g><path style="opacity:1" fill="#c48f37" d="M 345.5,222.5 C 344.754,225.555 342.754,227.222 339.5,227.5C 337.239,226.905 335.572,225.571 334.5,223.5C 338.482,226.435 342.149,226.102 345.5,222.5 Z"/></g>
<g><path style="opacity:0.69" fill="#bc8318" d="M 263.5,226.5 C 265.95,228.629 267.617,231.296 268.5,234.5C 266.05,232.371 264.383,229.704 263.5,226.5 Z"/></g>
<g><path style="opacity:1" fill="#bf8724" d="M 313.5,228.5 C 315.588,230.336 316.921,232.669 317.5,235.5C 315.412,233.664 314.079,231.331 313.5,228.5 Z"/></g>
<g><path style="opacity:1" fill="#bb820e" d="M 317.5,235.5 C 319.104,236.287 319.771,237.62 319.5,239.5C 318.326,238.486 317.66,237.153 317.5,235.5 Z"/></g>
<g><path style="opacity:0.314" fill="#bb8219" d="M 268.5,234.5 C 272.251,238.995 275.251,243.995 277.5,249.5C 273.749,245.005 270.749,240.005 268.5,234.5 Z"/></g>
<g><path style="opacity:1" fill="#bd8522" d="M 319.5,239.5 C 321.588,241.336 322.921,243.669 323.5,246.5C 321.412,244.664 320.079,242.331 319.5,239.5 Z"/></g>
<g><path style="opacity:0.607" fill="#c49035" d="M 96.5,230.5 C 97.1524,231.449 97.4857,232.615 97.5,234C 96.1474,243.788 95.4808,253.622 95.5,263.5C 95.5,266.5 95.5,269.5 95.5,272.5C 94.0379,258.587 94.3713,244.587 96.5,230.5 Z"/></g>
<g><path style="opacity:1" fill="#b97d12" d="M 323.5,246.5 C 324.674,247.514 325.34,248.847 325.5,250.5C 323.896,249.713 323.229,248.38 323.5,246.5 Z"/></g>
<g><path style="opacity:1" fill="#ba7f12" d="M 326.5,252.5 C 327.674,253.514 328.34,254.847 328.5,256.5C 326.896,255.713 326.229,254.38 326.5,252.5 Z"/></g>
<g><path style="opacity:1" fill="#c08a29" d="M 55.5,226.5 C 53.3652,250.331 54.3652,273.998 58.5,297.5C 57.0735,295.852 56.2401,293.852 56,291.5C 51.6577,269.706 51.491,248.039 55.5,226.5 Z"/></g>
<g><path style="opacity:1" fill="#b98015" d="M 331.5,262.5 C 333.25,263.659 334.25,265.326 334.5,267.5C 332.75,266.341 331.75,264.674 331.5,262.5 Z"/></g>
<g><path style="opacity:1" fill="#b97f06" d="M 334.5,267.5 C 336.104,268.287 336.771,269.62 336.5,271.5C 335.326,270.486 334.66,269.153 334.5,267.5 Z"/></g>
<g><path style="opacity:1" fill="#bc841d" d="M 514.5,263.5 C 514.142,269.737 513.142,275.737 511.5,281.5C 511.585,277.151 511.918,272.818 512.5,268.5C 512.556,266.36 513.223,264.694 514.5,263.5 Z"/></g>
<g><path style="opacity:1" fill="#be8520" d="M 336.5,271.5 C 337.906,271.973 338.573,272.973 338.5,274.5C 337.094,274.027 336.427,273.027 336.5,271.5 Z"/></g>
<g><path style="opacity:1" fill="#ba7f0f" d="M 95.5,263.5 C 96.3404,267.996 97.0071,272.663 97.5,277.5C 97.4805,278.726 97.1471,279.726 96.5,280.5C 96.1667,277.833 95.8333,275.167 95.5,272.5C 95.5,269.5 95.5,266.5 95.5,263.5 Z"/></g>
<g><path style="opacity:1" fill="#bf8927" d="M 553.5,226.5 C 557.509,248.039 557.342,269.706 553,291.5C 551.788,296.38 550.288,301.047 548.5,305.5C 550.392,296.538 552.226,287.538 554,278.5C 554.746,261.149 554.579,243.816 553.5,226.5 Z"/></g>
<g><path style="opacity:0.314" fill="#be8623" d="M 277.5,249.5 C 287.084,266.332 296.417,283.332 305.5,300.5C 301.135,294.942 297.302,288.942 294,282.5C 288.473,271.447 282.973,260.447 277.5,249.5 Z"/></g>
<g><path style="opacity:1" fill="#be8623" d="M 339.5,276.5 C 342.277,278.951 344.277,281.951 345.5,285.5C 342.759,283.025 340.759,280.025 339.5,276.5 Z"/></g>
<g><path style="opacity:1" fill="#d4a865" d="M 283.5,288.5 C 280.946,287.612 278.279,287.279 275.5,287.5C 275.5,287.167 275.5,286.833 275.5,286.5C 277.288,285.378 279.288,285.211 281.5,286C 282.756,286.417 283.423,287.25 283.5,288.5 Z"/></g>
<g><path style="opacity:0.314" fill="#c08a2a" d="M 97.5,281.5 C 99.2766,284.505 100.277,287.838 100.5,291.5C 98.32,288.619 97.32,285.286 97.5,281.5 Z"/></g>
<g><path style="opacity:1" fill="#b87c0a" d="M 275.5,286.5 C 275.5,286.833 275.5,287.167 275.5,287.5C 273.236,288.219 270.903,288.552 268.5,288.5C 270.599,287.388 272.933,286.721 275.5,286.5 Z"/></g>
<g><path style="opacity:1" fill="#c08827" d="M 345.5,285.5 C 347.262,286.262 348.262,287.596 348.5,289.5C 346.738,288.738 345.738,287.404 345.5,285.5 Z"/></g>
<g><path style="opacity:1" fill="#c08a2c" d="M 268.5,288.5 C 264.217,290.812 259.55,292.145 254.5,292.5C 258.895,290.565 263.562,289.231 268.5,288.5 Z"/></g>
<g><path style="opacity:1" fill="#bf8721" d="M 348.5,289.5 C 350.262,290.262 351.262,291.596 351.5,293.5C 349.738,292.738 348.738,291.404 348.5,289.5 Z"/></g>
<g><path style="opacity:1" fill="#be8622" d="M 253.5,293.5 C 250.302,294.787 246.969,295.453 243.5,295.5C 246.089,294.134 248.922,293.134 252,292.5C 252.765,292.57 253.265,292.903 253.5,293.5 Z"/></g>
<g><path style="opacity:1" fill="#ba8013" d="M 510.5,285.5 C 510.68,289.286 509.68,292.619 507.5,295.5C 507.899,291.884 508.899,288.55 510.5,285.5 Z"/></g>
<g><path style="opacity:1" fill="#c18b2d" d="M 100.5,291.5 C 103.497,296.825 106.497,302.159 109.5,307.5C 104.943,303.054 101.943,297.721 100.5,291.5 Z"/></g>
<g><path style="opacity:1" fill="#be851a" d="M 351.5,293.5 C 353.914,294.911 355.581,296.911 356.5,299.5C 354.086,298.089 352.419,296.089 351.5,293.5 Z"/></g>
<g><path style="opacity:1" fill="#c08a28" d="M 283.5,288.5 C 284.643,291.976 284.81,295.642 284,299.5C 283.95,301.744 283.117,303.411 281.5,304.5C 282.446,299.207 283.113,293.874 283.5,288.5 Z"/></g>
<g><path style="opacity:1" fill="#bf8724" d="M 243.5,295.5 C 236.58,298.625 229.247,300.625 221.5,301.5C 228.566,298.898 235.899,296.898 243.5,295.5 Z"/></g>
<g><path style="opacity:1" fill="#bb8116" d="M 507.5,295.5 C 507.448,298.346 506.448,300.68 504.5,302.5C 504.935,299.843 505.935,297.509 507.5,295.5 Z"/></g>
<g><path style="opacity:1" fill="#ba8010" d="M 305.5,300.5 C 306.906,300.973 307.573,301.973 307.5,303.5C 306.094,303.027 305.427,302.027 305.5,300.5 Z"/></g>
<g><path style="opacity:1" fill="#bb7f1a" d="M 307.5,303.5 C 308.906,303.973 309.573,304.973 309.5,306.5C 308.094,306.027 307.427,305.027 307.5,303.5 Z"/></g>
<g><path style="opacity:1" fill="#c18a2c" d="M 59.5,298.5 C 63.019,308.537 67.3523,318.204 72.5,327.5C 66.2439,319.295 61.5773,310.128 58.5,300C 58.5699,299.235 58.9033,298.735 59.5,298.5 Z"/></g>
<g><path style="opacity:1" fill="#bc831a" d="M 221.5,301.5 C 215.764,303.798 209.764,305.631 203.5,307C 200.913,308.525 200.08,310.692 201,313.5C 204.038,316.369 206.871,319.369 209.5,322.5C 205.933,320.443 202.766,317.777 200,314.5C 198.877,311.044 199.71,308.21 202.5,306C 208.777,304.184 215.11,302.684 221.5,301.5 Z"/></g>
<g><path style="opacity:1" fill="#c18b31" d="M 356.5,299.5 C 362.86,305.528 369.193,311.528 375.5,317.5C 367.878,312.879 361.545,306.879 356.5,299.5 Z"/></g>
<g><path style="opacity:1" fill="#ba7e13" d="M 504.5,302.5 C 504.539,305.089 503.539,307.089 501.5,308.5C 501.992,306.181 502.992,304.181 504.5,302.5 Z"/></g>
<g><path style="opacity:1" fill="#b97e08" d="M 309.5,306.5 C 310.906,306.973 311.573,307.973 311.5,309.5C 310.094,309.027 309.427,308.027 309.5,306.5 Z"/></g>
<g><path style="opacity:1" fill="#be8622" d="M 548.5,305.5 C 548.267,308.542 547.267,311.208 545.5,313.5C 545.415,310.351 546.415,307.684 548.5,305.5 Z"/></g>
<g><path style="opacity:1" fill="#b87c11" d="M 109.5,307.5 C 110.906,307.973 111.573,308.973 111.5,310.5C 110.094,310.027 109.427,309.027 109.5,307.5 Z"/></g>
<g><path style="opacity:1" fill="#b87c05" d="M 501.5,308.5 C 501.573,310.027 500.906,311.027 499.5,311.5C 499.427,309.973 500.094,308.973 501.5,308.5 Z"/></g>
<g><path style="opacity:1" fill="#bb811a" d="M 311.5,309.5 C 313.262,310.262 314.262,311.596 314.5,313.5C 312.738,312.738 311.738,311.404 311.5,309.5 Z"/></g>
<g><path style="opacity:1" fill="#bd841d" d="M 111.5,310.5 C 115.833,314.167 119.833,318.167 123.5,322.5C 118.5,319.5 114.5,315.5 111.5,310.5 Z"/></g>
<g><path style="opacity:0.439" fill="#bb821b" d="M 314.5,313.5 C 316.262,314.262 317.262,315.596 317.5,317.5C 315.738,316.738 314.738,315.404 314.5,313.5 Z"/></g>
<g><path style="opacity:1" fill="#bf8726" d="M 499.5,311.5 C 498.647,315.02 496.647,317.687 493.5,319.5C 495.122,316.545 497.122,313.878 499.5,311.5 Z"/></g>
<g><path style="opacity:1" fill="#bd8321" d="M 317.5,317.5 C 319.587,318.585 320.92,320.251 321.5,322.5C 319.413,321.415 318.08,319.749 317.5,317.5 Z"/></g>
<g><path style="opacity:1" fill="#c48e35" d="M 375.5,317.5 C 377.23,318.026 378.564,319.026 379.5,320.5C 377.368,320.446 376.035,319.446 375.5,317.5 Z"/></g>
<g><path style="opacity:1" fill="#c28c30" d="M 544.5,315.5 C 543.54,320.086 541.54,324.086 538.5,327.5C 540.008,323.151 542.008,319.151 544.5,315.5 Z"/></g>
<g><path style="opacity:1" fill="#bd831e" d="M 379.5,320.5 C 381.853,321.34 383.853,322.674 385.5,324.5C 382.802,324.155 380.802,322.822 379.5,320.5 Z"/></g>
<g><path style="opacity:1" fill="#ce9c5e" d="M 493.5,319.5 C 493.167,321.833 491.833,323.167 489.5,323.5C 490.5,321.833 491.833,320.5 493.5,319.5 Z"/></g>
<g><path style="opacity:0.816" fill="#bd8421" d="M 123.5,322.5 C 127.439,324.446 131.106,326.779 134.5,329.5C 130.024,328.343 126.358,326.01 123.5,322.5 Z"/></g>
<g><path style="opacity:1" fill="#be8423" d="M 321.5,322.5 C 324.243,324.239 326.243,326.573 327.5,329.5C 324.757,327.761 322.757,325.427 321.5,322.5 Z"/></g>
<g><path style="opacity:1" fill="#be8524" d="M 385.5,324.5 C 387.674,324.75 389.341,325.75 390.5,327.5C 388.326,327.25 386.659,326.25 385.5,324.5 Z"/></g>
<g><path style="opacity:1" fill="#ba7f16" d="M 390.5,327.5 C 393.089,327.461 395.089,328.461 396.5,330.5C 394.181,330.008 392.181,329.008 390.5,327.5 Z"/></g>
<g><path style="opacity:0.941" fill="#b97e05" d="M 72.5,327.5 C 73.9063,327.973 74.573,328.973 74.5,330.5C 73.0937,330.027 72.427,329.027 72.5,327.5 Z"/></g>
<g><path style="opacity:1" fill="#c28b32" d="M 209.5,322.5 C 212.407,323.734 214.741,325.734 216.5,328.5C 215.423,329.705 214.09,330.372 212.5,330.5C 212.953,329.542 213.619,328.708 214.5,328C 212.627,326.296 210.96,324.463 209.5,322.5 Z"/></g>
<g><path style="opacity:1" fill="#c18a2e" d="M 489.5,323.5 C 487.363,326.973 484.363,329.306 480.5,330.5C 483.208,327.791 486.208,325.458 489.5,323.5 Z"/></g>
<g><path style="opacity:1" fill="#cd9957" d="M 327.5,329.5 C 328.833,329.5 329.5,330.167 329.5,331.5C 328.5,331.167 327.833,330.5 327.5,329.5 Z"/></g>
<g><path style="opacity:1" fill="#bc821d" d="M 537.5,329.5 C 537.573,331.027 536.906,332.027 535.5,332.5C 535.427,330.973 536.094,329.973 537.5,329.5 Z"/></g>
<g><path style="opacity:1" fill="#ba8102" d="M 480.5,330.5 C 479.486,331.674 478.153,332.34 476.5,332.5C 477.287,330.896 478.62,330.229 480.5,330.5 Z"/></g>
<g><path style="opacity:1" fill="#bf8826" d="M 281.5,305.5 C 282.139,306.097 282.472,306.93 282.5,308C 279.996,325.392 276.996,342.559 273.5,359.5C 275.843,341.418 278.509,323.418 281.5,305.5 Z"/></g>
<g><path style="opacity:1" fill="#bc831a" d="M 212.5,330.5 C 209.017,333.237 205.017,334.903 200.5,335.5C 204.213,333.315 208.213,331.648 212.5,330.5 Z"/></g>
<g><path style="opacity:1" fill="#cf9f55" d="M 476.5,332.5 C 475.313,334.975 473.313,335.975 470.5,335.5C 472.181,333.992 474.181,332.992 476.5,332.5 Z"/></g>
<g><path style="opacity:1" fill="#bc8318" d="M 74.5,330.5 C 76.984,332.8 78.984,335.467 80.5,338.5C 77.5293,336.557 75.5293,333.891 74.5,330.5 Z"/></g>
<g><path style="opacity:0.314" fill="#bb8117" d="M 535.5,332.5 C 535.155,335.198 533.822,337.198 531.5,338.5C 532.34,336.147 533.674,334.147 535.5,332.5 Z"/></g>
<g><path style="opacity:1" fill="#c28c30" d="M 134.5,329.5 C 142.978,333.27 151.812,335.937 161,337.5C 162.376,337.684 163.209,338.351 163.5,339.5C 156.912,339.069 150.578,337.569 144.5,335C 140.796,333.619 137.463,331.786 134.5,329.5 Z"/></g>
<g><path style="opacity:1" fill="#d7af74" d="M 199.5,336.5 C 199.158,337.338 198.492,337.672 197.5,337.5C 197.711,335.576 198.377,335.243 199.5,336.5 Z"/></g>
<g><path style="opacity:1" fill="#b87c03" d="M 329.5,331.5 C 332.833,334.167 335.833,337.167 338.5,340.5C 334.5,338.5 331.5,335.5 329.5,331.5 Z"/></g>
<g><path style="opacity:1" fill="#bb8219" d="M 191.5,337.5 C 189.343,338.407 187.01,339.073 184.5,339.5C 184.611,338.883 184.944,338.383 185.5,338C 187.473,337.505 189.473,337.338 191.5,337.5 Z"/></g>
<g><path style="opacity:1" fill="#d2a866" d="M 164.5,339.5 C 170.833,338.167 177.167,338.167 183.5,339.5C 177.123,340.75 170.79,340.75 164.5,339.5 Z"/></g>
<g><path style="opacity:1" fill="#c08928" d="M 396.5,330.5 C 407.059,335.058 418.059,338.225 429.5,340C 443.533,341.576 457.2,340.076 470.5,335.5C 468.507,337.163 466.174,338.33 463.5,339C 439.919,345.066 417.586,342.232 396.5,330.5 Z"/></g>
<g><path style="opacity:1" fill="#bc821c" d="M 531.5,338.5 C 530.92,340.749 529.587,342.415 527.5,343.5C 528.08,341.251 529.413,339.585 531.5,338.5 Z"/></g>
<g><path style="opacity:1" fill="#bc8416" d="M 80.5,338.5 C 85.1186,342.452 89.4519,346.785 93.5,351.5C 88.1879,348.188 83.8546,343.855 80.5,338.5 Z"/></g>
<g><path style="opacity:1" fill="#c1892f" d="M 338.5,340.5 C 343.132,343.798 347.466,347.464 351.5,351.5C 346.281,348.954 341.948,345.287 338.5,340.5 Z"/></g>
<g><path style="opacity:1" fill="#bb8116" d="M 527.5,343.5 C 523.833,349.167 519.167,353.833 513.5,357.5C 517.833,352.5 522.5,347.833 527.5,343.5 Z"/></g>
<g><path style="opacity:1" fill="#bf8622" d="M 351.5,351.5 C 353.404,351.738 354.738,352.738 355.5,354.5C 353.596,354.262 352.262,353.262 351.5,351.5 Z"/></g>
<g><path style="opacity:1" fill="#c08826" d="M 93.5,351.5 C 99.5085,355.836 105.508,360.169 111.5,364.5C 104.431,361.634 98.4311,357.3 93.5,351.5 Z"/></g>
<g><path style="opacity:1" fill="#be861e" d="M 355.5,354.5 C 357.027,354.427 358.027,355.094 358.5,356.5C 356.973,356.573 355.973,355.906 355.5,354.5 Z"/></g>
<g><path style="opacity:1" fill="#bd8516" d="M 358.5,356.5 C 360.027,356.427 361.027,357.094 361.5,358.5C 359.973,358.573 358.973,357.906 358.5,356.5 Z"/></g>
<g><path style="opacity:1" fill="#bc8219" d="M 361.5,358.5 C 363.027,358.427 364.027,359.094 364.5,360.5C 362.973,360.573 361.973,359.906 361.5,358.5 Z"/></g>
<g><path style="opacity:0.188" fill="#bb811a" d="M 250.5,359.5 C 249.417,359.461 248.417,359.127 247.5,358.5C 244.721,360.624 241.721,362.291 238.5,363.5C 241.332,360.822 244.499,358.488 248,356.5C 249.045,357.373 249.878,358.373 250.5,359.5 Z"/></g>
<g><path style="opacity:0.063" fill="#ba8019" d="M 513.5,357.5 C 512.415,359.587 510.749,360.92 508.5,361.5C 509.585,359.413 511.251,358.08 513.5,357.5 Z"/></g>
<g><path style="opacity:0.816" fill="#bd861d" d="M 364.5,360.5 C 367.331,361.079 369.664,362.412 371.5,364.5C 368.669,363.921 366.336,362.588 364.5,360.5 Z"/></g>
<g><path style="opacity:1" fill="#ba8008" d="M 508.5,361.5 C 508.027,362.906 507.027,363.573 505.5,363.5C 505.973,362.094 506.973,361.427 508.5,361.5 Z"/></g>
<g><path style="opacity:1" fill="#bc8319" d="M 111.5,364.5 C 116.484,366.326 121.151,368.659 125.5,371.5C 120.247,370.207 115.581,367.874 111.5,364.5 Z"/></g>
<g><path style="opacity:1" fill="#bb8117" d="M 238.5,363.5 C 237.341,365.25 235.674,366.25 233.5,366.5C 234.659,364.75 236.326,363.75 238.5,363.5 Z"/></g>
<g><path style="opacity:1" fill="#c08926" d="M 273.5,359.5 C 273.701,362.728 273.367,365.895 272.5,369C 272.252,370.749 271.252,371.582 269.5,371.5C 270.831,367.46 272.164,363.46 273.5,359.5 Z"/></g>
<g><path style="opacity:1" fill="#bc811c" d="M 505.5,363.5 C 505.027,364.906 504.027,365.573 502.5,365.5C 502.973,364.094 503.973,363.427 505.5,363.5 Z"/></g>
<g><path style="opacity:1" fill="#be8420" d="M 250.5,359.5 C 254.436,361.766 257.769,364.766 260.5,368.5C 256.564,366.234 253.231,363.234 250.5,359.5 Z"/></g>
<g><path style="opacity:1" fill="#bc831f" d="M 502.5,365.5 C 501.341,367.25 499.674,368.25 497.5,368.5C 498.659,366.75 500.326,365.75 502.5,365.5 Z"/></g>
<g><path style="opacity:1" fill="#bd8318" d="M 233.5,366.5 C 232.713,368.104 231.38,368.771 229.5,368.5C 230.287,366.896 231.62,366.229 233.5,366.5 Z"/></g>
<g><path style="opacity:1" fill="#be8724" d="M 375.5,366.5 C 379.063,367.282 382.397,368.616 385.5,370.5C 385.44,371.043 385.107,371.376 384.5,371.5C 381.245,370.045 378.245,368.378 375.5,366.5 Z"/></g>
<g><path style="opacity:1" fill="#c28c33" d="M 260.5,368.5 C 262.196,368.685 263.529,369.519 264.5,371C 266.134,371.494 267.801,371.66 269.5,371.5C 269.134,372.695 268.301,373.361 267,373.5C 264.088,372.749 261.921,371.082 260.5,368.5 Z"/></g>
<g><path style="opacity:1" fill="#bd8520" d="M 386.5,371.5 C 389.157,371.935 391.491,372.935 393.5,374.5C 390.654,374.448 388.32,373.448 386.5,371.5 Z"/></g>
<g><path style="opacity:0.941" fill="#bd8521" d="M 497.5,368.5 C 493.431,371.868 488.764,374.201 483.5,375.5C 487.818,372.674 492.484,370.341 497.5,368.5 Z"/></g>
<g><path style="opacity:0.816" fill="#c18b2e" d="M 125.5,371.5 C 128.578,371.62 131.245,372.62 133.5,374.5C 130.351,374.585 127.684,373.585 125.5,371.5 Z"/></g>
<g><path style="opacity:1" fill="#bf8825" d="M 229.5,368.5 C 223.186,372.817 216.186,375.817 208.5,377.5C 207.584,377.457 206.917,377.124 206.5,376.5C 214.259,374.122 221.925,371.455 229.5,368.5 Z"/></g>
<g><path style="opacity:1" fill="#bf8925" d="M 393.5,374.5 C 396.267,374.858 398.933,375.525 401.5,376.5C 398.62,377.33 395.954,376.663 393.5,374.5 Z"/></g>
<g><path style="opacity:0.502" fill="#c08a29" d="M 133.5,374.5 C 136.583,374.916 139.583,375.583 142.5,376.5C 139.252,377.541 136.252,376.874 133.5,374.5 Z"/></g>
<g><path style="opacity:0.627" fill="#ba8114" d="M 143.5,377.5 C 148.82,378.26 154.153,378.927 159.5,379.5C 153.981,380.8 148.648,380.134 143.5,377.5 Z"/></g>
<g><path style="opacity:1" fill="#ba7f11" d="M 205.5,377.5 C 199.997,380.031 194.33,380.698 188.5,379.5C 194.155,378.751 199.822,378.085 205.5,377.5 Z"/></g>
<g><path style="opacity:1" fill="#ba7f10" d="M 187.5,379.5 C 183.386,380.826 178.886,381.493 174,381.5C 169.32,381.499 164.82,381.166 160.5,380.5C 169.528,380.68 178.528,380.347 187.5,379.5 Z"/></g>
<g><path style="opacity:1" fill="#bb8319" d="M 402.5,377.5 C 413.603,380.638 424.936,382.305 436.5,382.5C 424.78,383.826 413.447,382.159 402.5,377.5 Z"/></g>
<g><path style="opacity:0.376" fill="#be8824" d="M 483.5,375.5 C 471.41,381.36 458.743,383.694 445.5,382.5C 452.509,381.808 459.509,380.975 466.5,380C 472.173,378.495 477.84,376.995 483.5,375.5 Z"/></g>
</svg>
