<?xml version="1.0" encoding="UTF-8"?>
<!DOCTYPE svg PUBLIC "-//W3C//DTD SVG 1.1//EN" "http://www.w3.org/Graphics/SVG/1.1/DTD/svg11.dtd">
<svg xmlns="http://www.w3.org/2000/svg" version="1.1" width="563px" height="539px" style="shape-rendering:geometricPrecision; text-rendering:geometricPrecision; image-rendering:optimizeQuality; fill-rule:evenodd; clip-rule:evenodd" xmlns:xlink="http://www.w3.org/1999/xlink">
<g><path style="opacity:1" fill="#fefdfd" d="M 285.5,17.5 C 286.073,20.4065 287.739,22.4065 290.5,23.5C 292.5,25.1667 294.5,26.8333 296.5,28.5C 296.5,30.5 297.5,31.5 299.5,31.5C 302.593,34.157 305.427,37.157 308,40.5C 309.107,39.2881 309.607,39.6214 309.5,41.5C 309.369,42.2389 309.536,42.9056 310,43.5C 313.333,46.0017 316.499,48.6684 319.5,51.5C 319.5,53.5 320.5,54.5 322.5,54.5C 325.593,57.157 328.427,60.157 331,63.5C 332.107,62.2881 332.607,62.6214 332.5,64.5C 332.81,66.1436 333.81,67.1436 335.5,67.5C 337.452,70.1184 339.785,72.4518 342.5,74.5C 342.5,76.5 343.5,77.5 345.5,77.5C 347.379,77.3932 347.712,77.8932 346.5,79C 349.667,80.8333 352.167,83.3333 354,86.5C 355.107,85.2881 355.607,85.6214 355.5,87.5C 355.81,89.1436 356.81,90.1436 358.5,90.5C 360.167,92.8333 362.167,94.8333 364.5,96.5C 364.81,98.1436 365.81,99.1436 367.5,99.5C 368.833,100.5 368.833,101.5 367.5,102.5C 310.5,102.5 253.5,102.5 196.5,102.5C 197.044,100.284 198.044,98.2845 199.5,96.5C 201.167,94.5 202.833,92.5 204.5,90.5C 206.19,90.1436 207.19,89.1436 207.5,87.5C 207.393,85.6214 207.893,85.2881 209,86.5C 211.028,83.3078 213.528,80.6411 216.5,78.5C 217.239,78.631 217.906,78.4643 218.5,78C 222.416,73.2605 226.416,68.7605 230.5,64.5C 230.393,62.6214 230.893,62.2881 232,63.5C 233.529,60.7412 235.695,58.7412 238.5,57.5C 242.804,52.3643 247.637,47.6976 253,43.5C 253.464,42.9056 253.631,42.2389 253.5,41.5C 253.393,39.6214 253.893,39.2881 255,40.5C 256.385,37.6141 258.551,35.6141 261.5,34.5C 263.833,32.8333 265.833,30.8333 267.5,28.5C 268.833,26.5 270.5,24.8333 272.5,23.5C 274.833,21.8333 276.833,19.8333 278.5,17.5C 278.825,15.8684 279.825,14.8684 281.5,14.5C 283.041,15.2858 284.374,16.2858 285.5,17.5 Z"/></g>
<g><path style="opacity:1" fill="#f18eb3" d="M 278.5,17.5 C 276.833,19.8333 274.833,21.8333 272.5,23.5C 272.5,23.1667 272.5,22.8333 272.5,22.5C 273.911,20.086 275.911,18.4194 278.5,17.5 Z"/></g>
<g><path style="opacity:1" fill="#f398b9" d="M 285.5,17.5 C 287.5,18.8333 289.167,20.5 290.5,22.5C 290.5,22.8333 290.5,23.1667 290.5,23.5C 287.739,22.4065 286.073,20.4065 285.5,17.5 Z"/></g>
<g><path style="opacity:0.188" fill="#df2874" d="M 290.5,23.5 C 290.5,23.1667 290.5,22.8333 290.5,22.5C 293.5,23.5 295.5,25.5 296.5,28.5C 294.5,26.8333 292.5,25.1667 290.5,23.5 Z"/></g>
<g><path style="opacity:1" fill="#e1307a" d="M 272.5,22.5 C 272.5,22.8333 272.5,23.1667 272.5,23.5C 270.5,24.8333 268.833,26.5 267.5,28.5C 267.167,28.5 266.833,28.5 266.5,28.5C 267.5,25.5 269.5,23.5 272.5,22.5 Z"/></g>
<g><path style="opacity:1" fill="#ef7da8" d="M 296.5,28.5 C 297.833,29.1667 298.833,30.1667 299.5,31.5C 297.5,31.5 296.5,30.5 296.5,28.5 Z"/></g>
<g><path style="opacity:1" fill="#f295b7" d="M 266.5,28.5 C 266.833,28.5 267.167,28.5 267.5,28.5C 265.833,30.8333 263.833,32.8333 261.5,34.5C 262.419,31.9108 264.086,29.9108 266.5,28.5 Z"/></g>
<g><path style="opacity:0.063" fill="#e44681" d="M 309.5,41.5 C 313.855,43.8548 317.188,47.1881 319.5,51.5C 316.499,48.6684 313.333,46.0017 310,43.5C 309.536,42.9056 309.369,42.2389 309.5,41.5 Z"/></g>
<g><path style="opacity:1" fill="#ea6294" d="M 253.5,41.5 C 253.631,42.2389 253.464,42.9056 253,43.5C 247.637,47.6976 242.804,52.3643 238.5,57.5C 242.096,50.9025 247.096,45.5692 253.5,41.5 Z"/></g>
<g><path style="opacity:1" fill="#ee7da8" d="M 319.5,51.5 C 320.833,52.1667 321.833,53.1667 322.5,54.5C 320.5,54.5 319.5,53.5 319.5,51.5 Z"/></g>
<g><path style="opacity:0.188" fill="#e64d85" d="M 332.5,64.5 C 334.19,64.8564 335.19,65.8564 335.5,67.5C 333.81,67.1436 332.81,66.1436 332.5,64.5 Z"/></g>
<g><path style="opacity:0.188" fill="#e23c7c" d="M 335.5,67.5 C 338.855,68.8552 341.189,71.1886 342.5,74.5C 339.785,72.4518 337.452,70.1184 335.5,67.5 Z"/></g>
<g><path style="opacity:1" fill="#e85a8e" d="M 230.5,64.5 C 226.416,68.7605 222.416,73.2605 218.5,78C 217.906,78.4643 217.239,78.631 216.5,78.5C 219.828,73.1692 224.495,68.5026 230.5,64.5 Z"/></g>
<g><path style="opacity:1" fill="#ef7ea8" d="M 342.5,74.5 C 343.833,75.1667 344.833,76.1667 345.5,77.5C 343.5,77.5 342.5,76.5 342.5,74.5 Z"/></g>
<g><path style="opacity:1" fill="#ed729e" d="M 207.5,87.5 C 207.19,89.1436 206.19,90.1436 204.5,90.5C 204.81,88.8564 205.81,87.8564 207.5,87.5 Z"/></g>
<g><path style="opacity:0.188" fill="#e64d85" d="M 355.5,87.5 C 357.19,87.8564 358.19,88.8564 358.5,90.5C 356.81,90.1436 355.81,89.1436 355.5,87.5 Z"/></g>
<g><path style="opacity:0.063" fill="#df2874" d="M 358.5,90.5 C 361.5,91.5 363.5,93.5 364.5,96.5C 362.167,94.8333 360.167,92.8333 358.5,90.5 Z"/></g>
<g><path style="opacity:1" fill="#e02e78" d="M 204.5,90.5 C 202.833,92.5 201.167,94.5 199.5,96.5C 199.167,96.5 198.833,96.5 198.5,96.5C 199.5,93.5 201.5,91.5 204.5,90.5 Z"/></g>
<g><path style="opacity:0.188" fill="#e64c85" d="M 364.5,96.5 C 366.19,96.8564 367.19,97.8564 367.5,99.5C 365.81,99.1436 364.81,98.1436 364.5,96.5 Z"/></g>
<g><path style="opacity:1" fill="#f084ac" d="M 198.5,96.5 C 198.833,96.5 199.167,96.5 199.5,96.5C 198.044,98.2845 197.044,100.284 196.5,102.5C 253.5,102.5 310.5,102.5 367.5,102.5C 310.335,103.665 253.001,103.832 195.5,103C 194.153,99.8554 195.153,97.6887 198.5,96.5 Z"/></g>
<g><path style="opacity:1" fill="#fefcfd" d="M 118.5,180.5 C 118.5,237.5 118.5,294.5 118.5,351.5C 115.962,350.957 113.628,349.957 111.5,348.5C 110.118,346.451 108.452,344.785 106.5,343.5C 106.144,341.81 105.144,340.81 103.5,340.5C 101.621,340.607 101.288,340.107 102.5,339C 98.9469,336.61 95.9469,333.776 93.5,330.5C 92.8333,327.833 91.1667,326.167 88.5,325.5C 87.1182,323.451 85.4516,321.785 83.5,320.5C 83.1436,318.81 82.1436,317.81 80.5,317.5C 78.6214,317.607 78.2881,317.107 79.5,316C 76.3078,313.972 73.6411,311.472 71.5,308.5C 70.5,305.5 68.5,303.5 65.5,302.5C 63.8116,298.812 61.145,296.145 57.5,294.5C 55.6214,294.607 55.2881,294.107 56.5,293C 53.3333,291.167 50.8333,288.667 49,285.5C 47.8932,286.712 47.3932,286.379 47.5,284.5C 46.8333,281.833 45.1667,280.167 42.5,279.5C 40.4784,275.478 37.4784,272.478 33.5,270.5C 32.8333,269.5 32.1667,268.5 31.5,267.5C 31.5,266.5 31.5,265.5 31.5,264.5C 31.8333,263.5 32.5,262.833 33.5,262.5C 38.1094,257.628 42.9428,252.962 48,248.5C 48.4643,247.906 48.631,247.239 48.5,246.5C 50.1942,245.473 51.5275,244.139 52.5,242.5C 54.0269,242.573 55.0269,241.906 55.5,240.5C 55.8333,239.833 56.1667,239.167 56.5,238.5C 57.2389,238.631 57.9056,238.464 58.5,238C 62.9474,233.147 67.2807,228.314 71.5,223.5C 73.8333,220.5 76.5,217.833 79.5,215.5C 81.7099,215.106 83.0432,213.773 83.5,211.5C 83.5,210.833 83.8333,210.5 84.5,210.5C 88.7908,207.877 92.4575,204.544 95.5,200.5C 97.1464,197.19 99.4797,194.523 102.5,192.5C 104.71,192.106 106.043,190.773 106.5,188.5C 106.5,187.833 106.833,187.5 107.5,187.5C 110.319,185.581 112.986,183.415 115.5,181C 116.448,180.517 117.448,180.351 118.5,180.5 Z"/></g>
<g><path style="opacity:1" fill="#f5a5c1" d="M 371.5,181.5 C 311.5,181.5 251.5,181.5 191.5,181.5C 191.611,180.883 191.944,180.383 192.5,180C 251.833,179.333 311.167,179.333 370.5,180C 371.056,180.383 371.389,180.883 371.5,181.5 Z"/></g>
<g><path style="opacity:1" fill="#fefcfc" d="M 448.5,180.5 C 448.369,181.239 448.536,181.906 449,182.5C 451.287,184.054 453.454,185.721 455.5,187.5C 455.81,189.144 456.81,190.144 458.5,190.5C 458.5,191.833 459.167,192.5 460.5,192.5C 463.5,194.833 466.167,197.5 468.5,200.5C 470.812,204.812 474.145,208.145 478.5,210.5C 478.81,212.144 479.81,213.144 481.5,213.5C 481.5,214.833 482.167,215.5 483.5,215.5C 486.472,217.641 488.972,220.308 491,223.5C 492.107,222.288 492.607,222.621 492.5,224.5C 494.145,228.145 496.812,230.812 500.5,232.5C 501.5,235.5 503.5,237.5 506.5,238.5C 509.472,240.641 511.972,243.308 514,246.5C 515.107,245.288 515.607,245.621 515.5,247.5C 517.145,251.145 519.812,253.812 523.5,255.5C 524.167,258.167 525.833,259.833 528.5,260.5C 529.954,262.458 531.621,264.291 533.5,266C 530.687,269.98 527.354,273.48 523.5,276.5C 522.167,277.167 521.167,278.167 520.5,279.5C 518.507,282.357 516.34,284.357 514,285.5C 512.167,288.667 509.667,291.167 506.5,293C 505.357,295.34 503.357,297.507 500.5,299.5C 499.167,300.167 498.167,301.167 497.5,302.5C 495.507,305.357 493.34,307.357 491,308.5C 489.167,311.667 486.667,314.167 483.5,316C 484.151,317.308 483.485,318.141 481.5,318.5C 480.5,318.833 479.833,319.5 479.5,320.5C 479.5,321.167 479.167,321.5 478.5,321.5C 476.833,322.5 475.5,323.833 474.5,325.5C 469.676,329.824 465.009,334.324 460.5,339C 461.151,340.308 460.485,341.141 458.5,341.5C 457.5,341.833 456.833,342.5 456.5,343.5C 456.5,344.167 456.167,344.5 455.5,344.5C 453.833,345.5 452.5,346.833 451.5,348.5C 450.833,349.833 449.833,350.833 448.5,351.5C 447.5,351.5 446.5,351.5 445.5,351.5C 445.5,294.5 445.5,237.5 445.5,180.5C 446.5,180.5 447.5,180.5 448.5,180.5 Z"/></g>
<g><path style="opacity:1" fill="#ed73a0" d="M 118.5,180.5 C 117.448,180.351 116.448,180.517 115.5,181C 112.986,183.415 110.319,185.581 107.5,187.5C 109.239,184.59 111.572,182.09 114.5,180C 116.278,177.975 117.611,178.141 118.5,180.5 Z"/></g>
<g><path style="opacity:1" fill="#fefdfd" d="M 191.5,181.5 C 251.5,181.5 311.5,181.5 371.5,181.5C 371.5,200.167 371.5,218.833 371.5,237.5C 311.5,238.833 251.5,238.833 191.5,237.5C 191.5,218.833 191.5,200.167 191.5,181.5 Z"/></g>
<g><path style="opacity:1" fill="#f7c9dc" d="M 448.5,180.5 C 447.5,180.5 446.5,180.5 445.5,180.5C 445.5,237.5 445.5,294.5 445.5,351.5C 446.5,351.5 447.5,351.5 448.5,351.5C 447.48,352.954 446.313,353.287 445,352.5C 444.5,294.834 444.333,237.168 444.5,179.5C 446.099,179.232 447.432,179.566 448.5,180.5 Z"/></g>
<g><path style="opacity:1" fill="#ea6b99" d="M 191.5,181.5 C 191.5,200.167 191.5,218.833 191.5,237.5C 190.883,237.389 190.383,237.056 190,236.5C 189.333,218.5 189.333,200.5 190,182.5C 190.383,181.944 190.883,181.611 191.5,181.5 Z"/></g>
<g><path style="opacity:0.188" fill="#e4477e" d="M 371.5,181.5 C 372.117,181.611 372.617,181.944 373,182.5C 373.667,200.5 373.667,218.5 373,236.5C 372.617,237.056 372.117,237.389 371.5,237.5C 371.5,218.833 371.5,200.167 371.5,181.5 Z"/></g>
<g><path style="opacity:0.188" fill="#e54c85" d="M 448.5,180.5 C 450.01,181.836 451.677,183.003 453.5,184C 454.823,184.816 455.489,185.983 455.5,187.5C 453.454,185.721 451.287,184.054 449,182.5C 448.536,181.906 448.369,181.239 448.5,180.5 Z"/></g>
<g><path style="opacity:0.188" fill="#e54c84" d="M 455.5,187.5 C 457.19,187.856 458.19,188.856 458.5,190.5C 456.81,190.144 455.81,189.144 455.5,187.5 Z"/></g>
<g><path style="opacity:1" fill="#ec6e9b" d="M 106.5,188.5 C 106.043,190.773 104.71,192.106 102.5,192.5C 102.062,192.565 101.728,192.399 101.5,192C 103.279,190.86 104.946,189.693 106.5,188.5 Z"/></g>
<g><path style="opacity:0.188" fill="#e64e83" d="M 458.5,190.5 C 459.473,190.987 460.473,191.487 461.5,192C 461.272,192.399 460.938,192.565 460.5,192.5C 459.167,192.5 458.5,191.833 458.5,190.5 Z"/></g>
<g><path style="opacity:1" fill="#ec6d9b" d="M 468.5,200.5 C 471.003,202.833 473.669,204.999 476.5,207C 477.823,207.816 478.489,208.983 478.5,210.5C 474.145,208.145 470.812,204.812 468.5,200.5 Z"/></g>
<g><path style="opacity:1" fill="#ed77a2" d="M 95.5,200.5 C 92.4575,204.544 88.7908,207.877 84.5,210.5C 84.5106,208.983 85.1772,207.816 86.5,207C 89.3968,204.59 92.3968,202.423 95.5,200.5 Z"/></g>
<g><path style="opacity:0.063" fill="#e54b84" d="M 478.5,210.5 C 480.19,210.856 481.19,211.856 481.5,213.5C 479.81,213.144 478.81,212.144 478.5,210.5 Z"/></g>
<g><path style="opacity:1" fill="#ec6e9a" d="M 83.5,211.5 C 83.0432,213.773 81.7099,215.106 79.5,215.5C 79.0618,215.565 78.7284,215.399 78.5,215C 80.2792,213.86 81.9459,212.693 83.5,211.5 Z"/></g>
<g><path style="opacity:0.188" fill="#e64e83" d="M 481.5,213.5 C 482.473,213.987 483.473,214.487 484.5,215C 484.272,215.399 483.938,215.565 483.5,215.5C 482.167,215.5 481.5,214.833 481.5,213.5 Z"/></g>
<g><path style="opacity:1" fill="#ec6e9c" d="M 492.5,224.5 C 495.575,226.909 498.242,229.575 500.5,232.5C 496.812,230.812 494.145,228.145 492.5,224.5 Z"/></g>
<g><path style="opacity:1" fill="#ee79a4" d="M 71.5,223.5 C 67.2807,228.314 62.9474,233.147 58.5,238C 57.9056,238.464 57.2389,238.631 56.5,238.5C 56.0618,238.565 55.7284,238.399 55.5,238C 60.6667,232.833 65.8333,227.667 71,222.5C 71.3988,222.728 71.5654,223.062 71.5,223.5 Z"/></g>
<g><path style="opacity:1" fill="#ed76a1" d="M 500.5,232.5 C 503.199,234.527 505.199,236.527 506.5,238.5C 503.5,237.5 501.5,235.5 500.5,232.5 Z"/></g>
<g><path style="opacity:1" fill="#f499b5" d="M 55.5,240.5 C 55.0269,241.906 54.0269,242.573 52.5,242.5C 52.9731,241.094 53.9731,240.427 55.5,240.5 Z"/></g>
<g><path style="opacity:1" fill="#ec6e9c" d="M 515.5,247.5 C 518.575,249.909 521.242,252.575 523.5,255.5C 519.812,253.812 517.145,251.145 515.5,247.5 Z"/></g>
<g><path style="opacity:1" fill="#ef7da7" d="M 48.5,246.5 C 48.631,247.239 48.4643,247.906 48,248.5C 42.9428,252.962 38.1094,257.628 33.5,262.5C 35.4233,259.397 37.59,256.397 40,253.5C 43.3278,250.934 46.1612,248.601 48.5,246.5 Z"/></g>
<g><path style="opacity:1" fill="#ee7ba6" d="M 523.5,255.5 C 525.5,256.833 527.167,258.5 528.5,260.5C 525.833,259.833 524.167,258.167 523.5,255.5 Z"/></g>
<g><path style="opacity:1" fill="#f18eac" d="M 31.5,264.5 C 31.5,265.5 31.5,266.5 31.5,267.5C 28.8333,266.5 28.8333,265.5 31.5,264.5 Z"/></g>
<g><path style="opacity:1" fill="#ec709d" d="M 33.5,270.5 C 37.4784,272.478 40.4784,275.478 42.5,279.5C 39.2419,276.909 36.2419,273.909 33.5,270.5 Z"/></g>
<g><path style="opacity:0.188" fill="#df2271" d="M 523.5,276.5 C 523.5,278.5 522.5,279.5 520.5,279.5C 521.167,278.167 522.167,277.167 523.5,276.5 Z"/></g>
<g><path style="opacity:1" fill="#ee7ba6" d="M 42.5,279.5 C 45.1667,280.167 46.8333,281.833 47.5,284.5C 45.5,283.167 43.8333,281.5 42.5,279.5 Z"/></g>
<g><path style="opacity:1" fill="#ec6e9c" d="M 57.5,294.5 C 61.145,296.145 63.8116,298.812 65.5,302.5C 62.5753,300.242 59.9086,297.575 57.5,294.5 Z"/></g>
<g><path style="opacity:1" fill="#fef9fb" d="M 371.5,294.5 C 371.5,313.167 371.5,331.833 371.5,350.5C 371.389,351.117 371.056,351.617 370.5,352C 311.167,352.667 251.833,352.667 192.5,352C 191.944,351.617 191.611,351.117 191.5,350.5C 191.5,331.833 191.5,313.167 191.5,294.5C 251.5,293.167 311.5,293.167 371.5,294.5 Z"/></g>
<g><path style="opacity:1" fill="#ea6b99" d="M 191.5,294.5 C 191.5,313.167 191.5,331.833 191.5,350.5C 190.883,350.389 190.383,350.056 190,349.5C 189.333,331.5 189.333,313.5 190,295.5C 190.383,294.944 190.883,294.611 191.5,294.5 Z"/></g>
<g><path style="opacity:0.188" fill="#e4477e" d="M 371.5,294.5 C 372.117,294.611 372.617,294.944 373,295.5C 373.667,313.5 373.667,331.5 373,349.5C 372.617,350.056 372.117,350.389 371.5,350.5C 371.5,331.833 371.5,313.167 371.5,294.5 Z"/></g>
<g><path style="opacity:0.188" fill="#df2271" d="M 500.5,299.5 C 500.5,301.5 499.5,302.5 497.5,302.5C 498.167,301.167 499.167,300.167 500.5,299.5 Z"/></g>
<g><path style="opacity:1" fill="#ed76a1" d="M 65.5,302.5 C 68.5,303.5 70.5,305.5 71.5,308.5C 69.5269,307.199 67.5269,305.199 65.5,302.5 Z"/></g>
<g><path style="opacity:1" fill="#e12f44" d="M 541.5,316.5 C 542.251,315.427 543.251,315.26 544.5,316C 543.552,316.483 542.552,316.649 541.5,316.5 Z"/></g>
<g><path style="opacity:0.063" fill="#ee3631" d="M 541.5,316.5 C 540.833,317.167 540.833,317.167 541.5,316.5 Z"/></g>
<g><path style="opacity:1" fill="#e32a45" d="M 538.5,317.5 C 539.833,318.167 539.833,318.167 538.5,317.5 Z"/></g>
<g><path style="opacity:1" fill="#e32a45" d="M 538.5,318.5 C 537.833,319.167 537.833,319.167 538.5,318.5 Z"/></g>
<g><path style="opacity:0.063" fill="#e64c84" d="M 80.5,317.5 C 82.1436,317.81 83.1436,318.81 83.5,320.5C 81.8564,320.19 80.8564,319.19 80.5,317.5 Z"/></g>
<g><path style="opacity:0.063" fill="#df2372" d="M 481.5,318.5 C 481.5,319.833 480.833,320.5 479.5,320.5C 479.833,319.5 480.5,318.833 481.5,318.5 Z"/></g>
<g><path style="opacity:0.035" fill="#e72e3e" d="M 537.5,319.5 C 537.672,320.492 537.338,321.158 536.5,321.5C 536.328,320.508 536.662,319.842 537.5,319.5 Z"/></g>
<g><path style="opacity:0.11" fill="#d9234e" d="M 536.5,321.5 C 535.833,322.167 535.833,322.167 536.5,321.5 Z"/></g>
<g><path style="opacity:0.188" fill="#e3417f" d="M 83.5,320.5 C 85.4516,321.785 87.1182,323.451 88.5,325.5C 85.856,324.856 84.1894,323.189 83.5,320.5 Z"/></g>
<g><path style="opacity:0.188" fill="#de2270" d="M 478.5,321.5 C 478.167,323.833 476.833,325.167 474.5,325.5C 475.5,323.833 476.833,322.5 478.5,321.5 Z"/></g>
<g><path style="opacity:1" fill="#ee7ca6" d="M 88.5,325.5 C 91.1667,326.167 92.8333,327.833 93.5,330.5C 91.5,329.167 89.8333,327.5 88.5,325.5 Z"/></g>
<g><path style="opacity:0.188" fill="#e64c85" d="M 103.5,340.5 C 105.144,340.81 106.144,341.81 106.5,343.5C 104.856,343.19 103.856,342.19 103.5,340.5 Z"/></g>
<g><path style="opacity:0.188" fill="#df2372" d="M 458.5,341.5 C 458.5,342.833 457.833,343.5 456.5,343.5C 456.833,342.5 457.5,341.833 458.5,341.5 Z"/></g>
<g><path style="opacity:0.188" fill="#e3417f" d="M 106.5,343.5 C 108.452,344.785 110.118,346.451 111.5,348.5C 108.856,347.856 107.189,346.189 106.5,343.5 Z"/></g>
<g><path style="opacity:0.188" fill="#de2270" d="M 455.5,344.5 C 455.167,346.833 453.833,348.167 451.5,348.5C 452.5,346.833 453.833,345.5 455.5,344.5 Z"/></g>
<g><path style="opacity:1" fill="#eb6ea0" d="M 111.5,348.5 C 113.628,349.957 115.962,350.957 118.5,351.5C 115.312,353.056 112.979,352.056 111.5,348.5 Z"/></g>
<g><path style="opacity:1" fill="#e9669c" d="M 367.5,429.5 C 310.5,429.5 253.5,429.5 196.5,429.5C 196.366,431.292 196.699,432.958 197.5,434.5C 194.758,433.442 194.091,431.609 195.5,429C 253.001,428.168 310.335,428.335 367.5,429.5 Z"/></g>
<g><path style="opacity:1" fill="#fefcfd" d="M 367.5,429.5 C 368.833,430.5 368.833,431.5 367.5,432.5C 366.5,432.833 365.833,433.5 365.5,434.5C 365.5,435.167 365.167,435.5 364.5,435.5C 362.167,437.167 360.167,439.167 358.5,441.5C 357.5,441.833 356.833,442.5 356.5,443.5C 356.141,445.485 355.308,446.151 354,445.5C 352.167,448.667 349.667,451.167 346.5,453C 346.833,453.333 347.167,453.667 347.5,454C 345.677,454.997 344.01,456.164 342.5,457.5C 340.167,459.167 338.167,461.167 336.5,463.5C 336.5,464.167 336.167,464.5 335.5,464.5C 334.5,464.833 333.833,465.5 333.5,466.5C 333.141,468.485 332.308,469.151 331,468.5C 326.991,472.342 323.157,476.342 319.5,480.5C 316.833,482.5 314.5,484.833 312.5,487.5C 307.834,492.833 302.501,498.167 296.5,503.5C 294.167,505.167 292.167,507.167 290.5,509.5C 288.137,512.854 285.137,515.52 281.5,517.5C 279.79,516.113 278.123,514.779 276.5,513.5C 276.167,511.167 274.833,509.833 272.5,509.5C 270.833,507.5 269.167,505.5 267.5,503.5C 266.407,500.739 264.407,499.073 261.5,498.5C 258.861,496.691 256.694,494.358 255,491.5C 253.893,492.712 253.393,492.379 253.5,490.5C 253.5,488.5 252.5,487.5 250.5,487.5C 248.5,485.167 246.5,482.833 244.5,480.5C 243.089,478.086 241.089,476.419 238.5,475.5C 235.947,473.403 233.614,471.07 231.5,468.5C 231.5,467.167 230.833,466.5 229.5,466.5C 229.144,464.81 228.144,463.81 226.5,463.5C 224.5,461.329 222.666,458.996 221,456.5C 220.184,455.177 219.017,454.511 217.5,454.5C 215.621,454.607 215.288,454.107 216.5,453C 213.308,450.972 210.641,448.472 208.5,445.5C 208.5,444.167 207.833,443.5 206.5,443.5C 206.167,442.5 205.5,441.833 204.5,441.5C 202.452,438.785 200.118,436.452 197.5,434.5C 196.699,432.958 196.366,431.292 196.5,429.5C 253.5,429.5 310.5,429.5 367.5,429.5 Z"/></g>
<g><path style="opacity:0.188" fill="#df2372" d="M 367.5,432.5 C 367.5,433.833 366.833,434.5 365.5,434.5C 365.833,433.5 366.5,432.833 367.5,432.5 Z"/></g>
<g><path style="opacity:0.188" fill="#e23c7c" d="M 197.5,434.5 C 200.118,436.452 202.452,438.785 204.5,441.5C 201.189,440.189 198.855,437.855 197.5,434.5 Z"/></g>
<g><path style="opacity:0.188" fill="#de2270" d="M 364.5,435.5 C 363.5,438.5 361.5,440.5 358.5,441.5C 360.167,439.167 362.167,437.167 364.5,435.5 Z"/></g>
<g><path style="opacity:0.188" fill="#df2372" d="M 204.5,441.5 C 205.5,441.833 206.167,442.5 206.5,443.5C 205.167,443.5 204.5,442.833 204.5,441.5 Z"/></g>
<g><path style="opacity:0.188" fill="#df2372" d="M 358.5,441.5 C 358.5,442.833 357.833,443.5 356.5,443.5C 356.833,442.5 357.5,441.833 358.5,441.5 Z"/></g>
<g><path style="opacity:0.188" fill="#e64e83" d="M 206.5,443.5 C 207.833,443.5 208.5,444.167 208.5,445.5C 208.565,445.938 208.399,446.272 208,446.5C 207.487,445.473 206.987,444.473 206.5,443.5 Z"/></g>
<g><path style="opacity:0.063" fill="#e54882" d="M 217.5,454.5 C 219.017,454.511 220.184,455.177 221,456.5C 222.666,458.996 224.5,461.329 226.5,463.5C 222.522,461.522 219.522,458.522 217.5,454.5 Z"/></g>
<g><path style="opacity:0.188" fill="#de206f" d="M 342.5,457.5 C 341.5,460.5 339.5,462.5 336.5,463.5C 338.167,461.167 340.167,459.167 342.5,457.5 Z"/></g>
<g><path style="opacity:0.188" fill="#e64c85" d="M 226.5,463.5 C 228.144,463.81 229.144,464.81 229.5,466.5C 227.856,466.19 226.856,465.19 226.5,463.5 Z"/></g>
<g><path style="opacity:0.188" fill="#df2372" d="M 335.5,464.5 C 335.5,465.833 334.833,466.5 333.5,466.5C 333.833,465.5 334.5,464.833 335.5,464.5 Z"/></g>
<g><path style="opacity:0.188" fill="#e64e83" d="M 229.5,466.5 C 230.833,466.5 231.5,467.167 231.5,468.5C 231.565,468.938 231.399,469.272 231,469.5C 230.487,468.473 229.987,467.473 229.5,466.5 Z"/></g>
<g><path style="opacity:1" fill="#f083ab" d="M 238.5,475.5 C 241.089,476.419 243.089,478.086 244.5,480.5C 244.167,480.5 243.833,480.5 243.5,480.5C 241.5,479.167 239.833,477.5 238.5,475.5 Z"/></g>
<g><path style="opacity:0.188" fill="#df2874" d="M 243.5,480.5 C 243.833,480.5 244.167,480.5 244.5,480.5C 246.5,482.833 248.5,485.167 250.5,487.5C 247.167,486.167 244.833,483.833 243.5,480.5 Z"/></g>
<g><path style="opacity:0.188" fill="#de2170" d="M 319.5,480.5 C 318.167,483.833 315.833,486.167 312.5,487.5C 314.5,484.833 316.833,482.5 319.5,480.5 Z"/></g>
<g><path style="opacity:1" fill="#ef7da7" d="M 250.5,487.5 C 252.5,487.5 253.5,488.5 253.5,490.5C 252.167,489.833 251.167,488.833 250.5,487.5 Z"/></g>
<g><path style="opacity:1" fill="#f398b9" d="M 261.5,498.5 C 264.407,499.073 266.407,500.739 267.5,503.5C 267.167,503.5 266.833,503.5 266.5,503.5C 264.5,502.167 262.833,500.5 261.5,498.5 Z"/></g>
<g><path style="opacity:0.188" fill="#df2874" d="M 266.5,503.5 C 266.833,503.5 267.167,503.5 267.5,503.5C 269.167,505.5 270.833,507.5 272.5,509.5C 269.5,508.5 267.5,506.5 266.5,503.5 Z"/></g>
<g><path style="opacity:0.188" fill="#de206f" d="M 296.5,503.5 C 295.5,506.5 293.5,508.5 290.5,509.5C 292.167,507.167 294.167,505.167 296.5,503.5 Z"/></g>
<g><path style="opacity:1" fill="#ef7da8" d="M 272.5,509.5 C 274.833,509.833 276.167,511.167 276.5,513.5C 274.833,512.5 273.5,511.167 272.5,509.5 Z"/></g>
</svg>
