<?xml version="1.0" encoding="UTF-8"?>
<!DOCTYPE svg PUBLIC "-//W3C//DTD SVG 1.1//EN" "http://www.w3.org/Graphics/SVG/1.1/DTD/svg11.dtd">
<svg xmlns="http://www.w3.org/2000/svg" version="1.1" width="687px" height="518px" style="shape-rendering:geometricPrecision; text-rendering:geometricPrecision; image-rendering:optimizeQuality; fill-rule:evenodd; clip-rule:evenodd" xmlns:xlink="http://www.w3.org/1999/xlink">
<g><path style="opacity:1" fill="#fafcf9" d="M 316.5,279.5 C 316.214,277.067 315.548,277.067 314.5,279.5C 299.61,306.275 284.443,332.941 269,359.5C 261.441,365.187 254.441,364.52 248,357.5C 247.138,355.913 246.471,354.246 246,352.5C 240.586,313.523 235.42,274.523 230.5,235.5C 230.799,233.396 230.466,231.396 229.5,229.5C 228.893,229.624 228.56,229.957 228.5,230.5C 218.414,254.76 207.747,278.76 196.5,302.5C 194.972,303.861 193.305,305.028 191.5,306C 141.545,307.648 91.5454,307.981 41.5,307C 31.4871,304.826 27.6538,298.659 30,288.5C 31.8333,285.333 34.3333,282.833 37.5,281C 84.1667,280.667 130.833,280.333 177.5,280C 193.462,244.574 209.295,209.074 225,173.5C 230.245,167.318 236.411,166.151 243.5,170C 246.135,171.961 247.969,174.461 249,177.5C 255.326,220.777 261.159,264.11 266.5,307.5C 266.786,309.933 267.452,309.933 268.5,307.5C 282.643,282.555 296.809,257.555 311,232.5C 318.343,223.575 326.01,223.241 334,231.5C 344.097,283.989 353.43,336.655 362,389.5C 394.333,278.5 426.667,167.5 459,56.5C 466.543,46.4536 474.543,46.1203 483,55.5C 501.474,94.586 520.141,133.586 539,172.5C 541.932,186.122 536.432,192.289 522.5,191C 519.898,190.117 517.731,188.617 516,186.5C 502.378,157.625 488.378,128.958 474,100.5C 439.734,219.296 405.068,337.962 370,456.5C 365.041,462.615 358.874,464.115 351.5,461C 348.865,459.039 347.031,456.539 346,453.5C 335.625,395.582 325.791,337.582 316.5,279.5 Z"/></g>
<g><path style="opacity:1" fill="#fcfdfc" d="M 496.5,222.5 C 509.446,221.152 521.113,224.319 531.5,232C 534.98,234.646 538.314,237.479 541.5,240.5C 549.835,231.832 559.835,225.998 571.5,223C 590.059,220.364 602.559,227.864 609,245.5C 615.106,263.11 613.106,279.776 603,295.5C 585.979,319.354 565.479,339.687 541.5,356.5C 517.521,339.687 497.021,319.354 480,295.5C 467.372,275.101 467.372,254.768 480,234.5C 484.305,228.672 489.805,224.672 496.5,222.5 Z"/></g>
<g><path style="opacity:1" fill="#a4c795" d="M 228.5,230.5 C 228.56,229.957 228.893,229.624 229.5,229.5C 230.466,231.396 230.799,233.396 230.5,235.5C 229.833,233.833 229.167,232.167 228.5,230.5 Z"/></g>
<g><path style="opacity:1" fill="#89b978" d="M 316.5,279.5 C 315.833,279.5 315.167,279.5 314.5,279.5C 315.548,277.067 316.214,277.067 316.5,279.5 Z"/></g>
<g><path style="opacity:1" fill="#79b168" d="M 266.5,307.5 C 267.167,307.5 267.833,307.5 268.5,307.5C 267.452,309.933 266.786,309.933 266.5,307.5 Z"/></g>
</svg>
